<svg width="106" height="106" viewBox="0 0 106 106" fill="none" xmlns="http://www.w3.org/2000/svg">
<path d="M97.8824 0.588226H15.0588V8.11764H22.5882V15.6471H15.0588V23.1765H7.52941V15.6471H0V90.9412H7.52941V98.4706H15.0588V106H90.3529V98.4706H97.8824V90.9412H105.412V45.7647H97.8824V38.2353H67.7647V45.7647H60.2353V53.2941H67.7647V60.8235H75.2941V75.8824H52.7059V23.1765H97.8824V15.6471H105.412V8.11764H97.8824V0.588226Z" fill="#00FF00"/>
<path d="M97.8824 0.588226H98.8824V-0.411774H97.8824V0.588226ZM15.0588 0.588226V-0.411774H14.0588V0.588226H15.0588ZM15.0588 8.11764H14.0588V9.11764H15.0588V8.11764ZM22.5882 8.11764H23.5882V7.11764H22.5882V8.11764ZM22.5882 15.6471V16.6471H23.5882V15.6471H22.5882ZM15.0588 15.6471V14.6471H14.0588V15.6471H15.0588ZM15.0588 23.1765V24.1765H16.0588V23.1765H15.0588ZM7.52941 23.1765H6.52941V24.1765H7.52941V23.1765ZM7.52941 15.6471H8.52941V14.6471H7.52941V15.6471ZM0 15.6471V14.6471H-1V15.6471H0ZM0 90.9412H-1V91.9412H0V90.9412ZM7.52941 90.9412H8.52941V89.9412H7.52941V90.9412ZM7.52941 98.4706H6.52941V99.4706H7.52941V98.4706ZM15.0588 98.4706H16.0588V97.4706H15.0588V98.4706ZM15.0588 106H14.0588V107H15.0588V106ZM90.3529 106V107H91.3529V106H90.3529ZM90.3529 98.4706V97.4706H89.3529V98.4706H90.3529ZM97.8824 98.4706V99.4706H98.8824V98.4706H97.8824ZM97.8824 90.9412V89.9412H96.8824V90.9412H97.8824ZM105.412 90.9412V91.9412H106.412V90.9412H105.412ZM105.412 45.7647H106.412V44.7647H105.412V45.7647ZM97.8824 45.7647H96.8824V46.7647H97.8824V45.7647ZM97.8824 38.2353H98.8824V37.2353H97.8824V38.2353ZM67.7647 38.2353V37.2353H66.7647V38.2353H67.7647ZM67.7647 45.7647V46.7647H68.7647V45.7647H67.7647ZM60.2353 45.7647V44.7647H59.2353V45.7647H60.2353ZM60.2353 53.2941H59.2353V54.2941H60.2353V53.2941ZM67.7647 53.2941H68.7647V52.2941H67.7647V53.2941ZM67.7647 60.8235H66.7647V61.8235H67.7647V60.8235ZM75.2941 60.8235H76.2941V59.8235H75.2941V60.8235ZM75.2941 75.8824V76.8824H76.2941V75.8824H75.2941ZM52.7059 75.8824H51.7059V76.8824H52.7059V75.8824ZM52.7059 23.1765V22.1765H51.7059V23.1765H52.7059ZM97.8824 23.1765V24.1765H98.8824V23.1765H97.8824ZM97.8824 15.6471V14.6471H96.8824V15.6471H97.8824ZM105.412 15.6471V16.6471H106.412V15.6471H105.412ZM105.412 8.11764H106.412V7.11764H105.412V8.11764ZM97.8824 8.11764H96.8824V9.11764H97.8824V8.11764ZM97.8824 -0.411774H15.0588V1.58823H97.8824V-0.411774ZM14.0588 0.588226V8.11764H16.0588V0.588226H14.0588ZM15.0588 9.11764H22.5882V7.11764H15.0588V9.11764ZM21.5882 8.11764V15.6471H23.5882V8.11764H21.5882ZM22.5882 14.6471H15.0588V16.6471H22.5882V14.6471ZM14.0588 15.6471V23.1765H16.0588V15.6471H14.0588ZM15.0588 22.1765H7.52941V24.1765H15.0588V22.1765ZM8.52941 23.1765V15.6471H6.52941V23.1765H8.52941ZM7.52941 14.6471H0V16.6471H7.52941V14.6471ZM-1 15.6471V90.9412H1V15.6471H-1ZM0 91.9412H7.52941V89.9412H0V91.9412ZM6.52941 90.9412V98.4706H8.52941V90.9412H6.52941ZM7.52941 99.4706H15.0588V97.4706H7.52941V99.4706ZM14.0588 98.4706V106H16.0588V98.4706H14.0588ZM15.0588 107H90.3529V105H15.0588V107ZM91.3529 106V98.4706H89.3529V106H91.3529ZM90.3529 99.4706H97.8824V97.4706H90.3529V99.4706ZM98.8824 98.4706V90.9412H96.8824V98.4706H98.8824ZM97.8824 91.9412H105.412V89.9412H97.8824V91.9412ZM106.412 90.9412V45.7647H104.412V90.9412H106.412ZM105.412 44.7647H97.8824V46.7647H105.412V44.7647ZM98.8824 45.7647V38.2353H96.8824V45.7647H98.8824ZM97.8824 37.2353H67.7647V39.2353H97.8824V37.2353ZM66.7647 38.2353V45.7647H68.7647V38.2353H66.7647ZM67.7647 44.7647H60.2353V46.7647H67.7647V44.7647ZM59.2353 45.7647V53.2941H61.2353V45.7647H59.2353ZM60.2353 54.2941H67.7647V52.2941H60.2353V54.2941ZM66.7647 53.2941V60.8235H68.7647V53.2941H66.7647ZM67.7647 61.8235H75.2941V59.8235H67.7647V61.8235ZM74.2941 60.8235V75.8824H76.2941V60.8235H74.2941ZM75.2941 74.8824H52.7059V76.8824H75.2941V74.8824ZM53.7059 75.8824V23.1765H51.7059V75.8824H53.7059ZM52.7059 24.1765H97.8824V22.1765H52.7059V24.1765ZM98.8824 23.1765V15.6471H96.8824V23.1765H98.8824ZM97.8824 16.6471H105.412V14.6471H97.8824V16.6471ZM106.412 15.6471V8.11764H104.412V15.6471H106.412ZM105.412 7.11764H97.8824V9.11764H105.412V7.11764ZM98.8824 8.11764V0.588226H96.8824V8.11764H98.8824Z" fill="black"/>
</svg>
