<svg width="120" height="100" viewBox="0 0 120 100" fill="none" xmlns="http://www.w3.org/2000/svg">
	<g id="triangles">
		<g id="dark">
			<path id="dark2" d="M63.1306 55.7012C62.7491 56.3547 61.8081 56.364 61.4136 55.7182L49.9997 37.0305C49.595 36.3679 50.0669 35.517 50.8432 35.5093L73.2988 35.287C74.0752 35.2793 74.5638 36.1207 74.1723 36.7912L63.1306 55.7012Z" opacity="0.5"/>
		</g>
		<g id="light">
			<path id="light3" d="M63.1306 43.7012C62.7491 44.3547 61.8081 44.364 61.4136 43.7182L49.9997 25.0305C49.595 24.3679 50.0669 23.517 50.8432 23.5093L73.2988 23.287C74.0752 23.2793 74.5638 24.1207 74.1723 24.7912L63.1306 43.7012Z" opacity="0.5"/>
			<path id="light1" d="M63.1306 43.7012C62.7491 44.3547 61.8081 44.364 61.4136 43.7182L49.9997 25.0305C49.595 24.3679 50.0669 23.517 50.8432 23.5093L73.2988 23.287C74.0752 23.2793 74.5638 24.1207 74.1723 24.7912L63.1306 43.7012Z" opacity="0.5"/>
		</g>
	</g>
</svg>
 