<svg id="visual" viewBox="0 0 900 600" width="900" height="600" xmlns="http://www.w3.org/2000/svg" xmlns:xlink="http://www.w3.org/1999/xlink" version="1.1"><rect x="0" y="0" width="900" height="600" fill="#30475E"></rect><path d="M0 313L35 328L69 333L104 289L138 176L173 235L208 391L242 386L277 348L312 391L346 307L381 431L415 427L450 368L485 285L519 206L554 295L588 294L623 307L658 285L692 372L727 268L762 249L796 377L831 415L865 429L900 271L900 0L865 0L831 0L796 0L762 0L727 0L692 0L658 0L623 0L588 0L554 0L519 0L485 0L450 0L415 0L381 0L346 0L312 0L277 0L242 0L208 0L173 0L138 0L104 0L69 0L35 0L0 0Z" fill="#222831" stroke-linecap="square" stroke-linejoin="bevel"></path></svg>