<svg id="visual" viewBox="0 0 900 600" width="900" height="600" xmlns="http://www.w3.org/2000/svg" xmlns:xlink="http://www.w3.org/1999/xlink" version="1.1"><rect x="0" y="0" width="900" height="600" fill="#30475E"></rect><path d="M0 160L35 289L69 209L104 412L138 342L173 428L208 422L242 372L277 277L312 418L346 343L381 377L415 193L450 296L485 381L519 288L554 266L588 199L623 366L658 232L692 159L727 256L762 280L796 167L831 359L865 212L900 210L900 0L865 0L831 0L796 0L762 0L727 0L692 0L658 0L623 0L588 0L554 0L519 0L485 0L450 0L415 0L381 0L346 0L312 0L277 0L242 0L208 0L173 0L138 0L104 0L69 0L35 0L0 0Z" fill="#222831" stroke-linecap="square" stroke-linejoin="bevel"></path></svg>