<svg id="visual" viewBox="0 0 900 600" width="900" height="600" xmlns="http://www.w3.org/2000/svg" xmlns:xlink="http://www.w3.org/1999/xlink" version="1.1"><rect x="0" y="0" width="900" height="600" fill="#30475E"></rect><path d="M0 311L35 377L69 246L104 371L138 304L173 382L208 169L242 422L277 400L312 247L346 347L381 383L415 293L450 333L485 178L519 390L554 406L588 381L623 347L658 398L692 329L727 299L762 348L796 288L831 275L865 177L900 303L900 0L865 0L831 0L796 0L762 0L727 0L692 0L658 0L623 0L588 0L554 0L519 0L485 0L450 0L415 0L381 0L346 0L312 0L277 0L242 0L208 0L173 0L138 0L104 0L69 0L35 0L0 0Z" fill="#222831" stroke-linecap="square" stroke-linejoin="bevel"></path></svg>