<svg id="visual" viewBox="0 0 900 300" width="900" height="300" xmlns="http://www.w3.org/2000/svg" xmlns:xlink="http://www.w3.org/1999/xlink" version="1.1"><rect x="0" y="0" width="900" height="300" fill="#738FC1"></rect><path d="M0 67L113 38L225 39L338 69L450 45L563 73L675 58L788 51L900 33L900 301L788 301L675 301L563 301L450 301L338 301L225 301L113 301L0 301Z" fill="#5c739d"></path><path d="M0 68L113 60L225 77L338 89L450 109L563 99L675 93L788 104L900 67L900 301L788 301L675 301L563 301L450 301L338 301L225 301L113 301L0 301Z" fill="#7385ab"></path><path d="M0 135L113 136L225 132L338 131L450 135L563 116L675 134L788 113L900 138L900 301L788 301L675 301L563 301L450 301L338 301L225 301L113 301L0 301Z" fill="#8b99b8"></path><path d="M0 135L113 145L225 166L338 142L450 125L563 147L675 159L788 157L900 153L900 301L788 301L675 301L563 301L450 301L338 301L225 301L113 301L0 301Z" fill="#a2acc6"></path><path d="M0 179L113 176L225 195L338 165L450 190L563 186L675 183L788 155L900 188L900 301L788 301L675 301L563 301L450 301L338 301L225 301L113 301L0 301Z" fill="#b9c0d4"></path><path d="M0 218L113 201L225 206L338 221L450 215L563 222L675 214L788 200L900 211L900 301L788 301L675 301L563 301L450 301L338 301L225 301L113 301L0 301Z" fill="#d0d5e2"></path><path d="M0 248L113 231L225 229L338 246L450 254L563 221L675 252L788 252L900 251L900 301L788 301L675 301L563 301L450 301L338 301L225 301L113 301L0 301Z" fill="#e7eaf1"></path><path d="M0 252L113 259L225 280L338 278L450 278L563 274L675 260L788 254L900 281L900 301L788 301L675 301L563 301L450 301L338 301L225 301L113 301L0 301Z" fill="#ffffff"></path></svg>