<svg id="visual" viewBox="0 0 900 600" width="900" height="600" xmlns="http://www.w3.org/2000/svg" xmlns:xlink="http://www.w3.org/1999/xlink" version="1.1">
	<rect x="0" y="0" width="900" height="600" fill="#30475E"></rect>
	<path d="M0 438L35 309L69 389L104 186L138 256L173 170L208 176L242 226L277 321L312 180L346 255L381 221L415 405L450 302L485 217L519 310L554 332L588 399L623 232L658 366L692 439L727 342L762 318L796 431L831 239L865 386L900 388L900 601L865 601L831 601L796 601L762 601L727 601L692 601L658 601L623 601L588 601L554 601L519 601L485 601L450 601L415 601L381 601L346 601L312 601L277 601L242 601L208 601L173 601L138 601L104 601L69 601L35 601L0 601Z" fill="#222831" stroke-linecap="square" stroke-linejoin="bevel"></path>
</svg>