<svg id="visual" viewBox="0 0 900 300" width="900" height="300" xmlns="http://www.w3.org/2000/svg" xmlns:xlink="http://www.w3.org/1999/xlink" version="1.1"><rect x="0" y="0" width="900" height="300" fill="#738FC1"></rect><path d="M0 267L113 235L225 240L338 222L450 268L563 249L675 241L788 257L900 217L900 0L788 0L675 0L563 0L450 0L338 0L225 0L113 0L0 0Z" fill="#5c739d"></path><path d="M0 194L113 222L225 207L338 203L450 230L563 213L675 207L788 209L900 226L900 0L788 0L675 0L563 0L450 0L338 0L225 0L113 0L0 0Z" fill="#556d94"></path><path d="M0 163L113 183L225 204L338 200L450 183L563 202L675 171L788 167L900 176L900 0L788 0L675 0L563 0L450 0L338 0L225 0L113 0L0 0Z" fill="#4e668b"></path><path d="M0 146L113 135L225 160L338 148L450 164L563 140L675 174L788 146L900 162L900 0L788 0L675 0L563 0L450 0L338 0L225 0L113 0L0 0Z" fill="#476082"></path><path d="M0 143L113 107L225 111L338 111L450 116L563 101L675 133L788 130L900 136L900 0L788 0L675 0L563 0L450 0L338 0L225 0L113 0L0 0Z" fill="#415a78"></path><path d="M0 103L113 104L225 103L338 87L450 88L563 109L675 105L788 98L900 75L900 0L788 0L675 0L563 0L450 0L338 0L225 0L113 0L0 0Z" fill="#3b5470"></path><path d="M0 68L113 75L225 47L338 48L450 44L563 48L675 47L788 81L900 70L900 0L788 0L675 0L563 0L450 0L338 0L225 0L113 0L0 0Z" fill="#354d67"></path><path d="M0 46L113 21L225 20L338 25L450 21L563 23L675 33L788 21L900 28L900 0L788 0L675 0L563 0L450 0L338 0L225 0L113 0L0 0Z" fill="#30475e"></path></svg>